# xmcd CD database file
#
# Track frame offsets:
#	150
#	18865
#	53884
#	174507
#	196488
#	219474
#	250172
#
# Disc length: 3623 seconds
#
# Revision: 2
# Processed by: cddbd v1.5.2PL0 Copyright (c) Steve Scherf et al.
# Submitted via: CDex 1.51
#
DISCID=5a0e2507
DTITLE=ROSS QUARESMINI - U-R-I-E-L
DYEAR=2010
DGENRE=New Age
TTITLE0=ROSS QUARESMINI 2004 - MIZAR
TTITLE1=ROSS QUARESMINI 2004 - GUILFORDIA YOKA
TTITLE2=ROSS QUARESMINI 2004 - FIVE ELEMENTS
TTITLE3=ROSS QUARESMINI 2004 - EMERALD LOVE I
TTITLE4=ROSS QUARESMINI 2004 - ALIOTH
TTITLE5=ROSS QUARESMINI 2004 - U-R-I-E-L
TTITLE6=ROSS QUARESMINI 2004 - EMERALD LOVE II
EXTD=YEAR: 2010
EXTT0=
EXTT1=
EXTT2=
EXTT3=
EXTT4=
EXTT5=
EXTT6=
PLAYORDER=
